<?xml version="1.0" encoding="UTF-8"?>
<score-partwise version="3.1"><work><work-title>Vira de Ladinho</work-title></work><part-list><score-part id="P1"><part-name>Trumpet in Bb</part-name><part-abbreviation>Tpt. in Bb</part-abbreviation></score-part></part-list><part id="P1"><measure number="1"><attributes><divisions>12</divisions><key><fifths>0</fifths></key><time><beats>4</beats><beat-type>4</beat-type></time><clef><sign>G</sign><line>2</line></clef></attributes><direction placement="above"><direction-type><metronome><beat-unit>quarter</beat-unit><per-minute>146</per-minute></metronome></direction-type><sound tempo="146" /></direction><note><rest /><duration>48</duration><type>measure</type></note></measure><measure number="2"><note><rest /><duration>12</duration><type>quarter</type></note><note><pitch><step>G</step><alter>1</alter><octave>4</octave></pitch><duration>6</duration><type>eighth</type></note><note><pitch><step>G</step><alter>1</alter><octave>4</octave></pitch><duration>6</duration><type>eighth</type></note><note><pitch><step>G</step><alter>1</alter><octave>4</octave></pitch><duration>6</duration><type>eighth</type></note><note><pitch><step>C</step><octave>4</octave></pitch><duration>6</duration><type>eighth</type></note><note><pitch><step>D</step><alter>1</alter><octave>4</octave></pitch><duration>6</duration><type>eighth</type></note><note><pitch><step>F</step><octave>4</octave></pitch><duration>6</duration><type>eighth</type></note></measure><measure number="3"><note><pitch><step>F</step><octave>4</octave></pitch><duration>12</duration><type>quarter</type></note><note><rest /><duration>12</duration><type>quarter</type></note><note><rest /><duration>24</duration><type>half</type></note></measure><measure number="4"><note><rest /><duration>12</duration><type>quarter</type></note><note><pitch><step>F</step><octave>4</octave></pitch><duration>6</duration><type>eighth</type></note><note><pitch><step>F</step><octave>4</octave></pitch><duration>6</duration><type>eighth</type></note><note><pitch><step>F</step><octave>4</octave></pitch><duration>6</duration><type>eighth</type></note><note><pitch><step>C</step><octave>4</octave></pitch><duration>6</duration><type>eighth</type></note><note><pitch><step>D</step><alter>1</alter><octave>4</octave></pitch><duration>6</duration><type>eighth</type></note><note><pitch><step>F</step><octave>4</octave></pitch><duration>6</duration><type>eighth</type></note></measure><measure number="5"><note><pitch><step>F</step><octave>4</octave></pitch><duration>12</duration><type>quarter</type></note><note><rest /><duration>12</duration><type>quarter</type></note><note><rest /><duration>24</duration><type>half</type></note></measure><measure number="6"><note><rest /><duration>12</duration><type>quarter</type></note><note><pitch><step>D</step><octave>4</octave></pitch><duration>6</duration><type>eighth</type></note><note><pitch><step>D</step><octave>4</octave></pitch><duration>6</duration><type>eighth</type></note><note><pitch><step>D</step><octave>4</octave></pitch><duration>6</duration><type>eighth</type></note><note><pitch><step>A</step><alter>1</alter><octave>3</octave></pitch><duration>6</duration><type>eighth</type></note><note><pitch><step>C</step><octave>4</octave></pitch><duration>6</duration><type>eighth</type></note><note><pitch><step>D</step><octave>4</octave></pitch><duration>6</duration><type>eighth</type></note></measure><measure number="7"><note><pitch><step>D</step><octave>4</octave></pitch><duration>6</duration><type>eighth</type></note><note><pitch><step>D</step><octave>4</octave></pitch><duration>6</duration><type>eighth</type></note><note><rest /><duration>12</duration><type>quarter</type></note><note><rest /><duration>24</duration><type>half</type></note></measure><measure number="8"><note><rest /><duration>12</duration><type>quarter</type></note><note><pitch><step>F</step><octave>4</octave></pitch><duration>6</duration><type>eighth</type></note><note><pitch><step>F</step><octave>4</octave></pitch><duration>6</duration><type>eighth</type></note><note><pitch><step>F</step><octave>4</octave></pitch><duration>6</duration><type>eighth</type></note><note><pitch><step>C</step><octave>4</octave></pitch><duration>6</duration><type>eighth</type></note><note><pitch><step>D</step><alter>1</alter><octave>4</octave></pitch><duration>6</duration><type>eighth</type></note><note><pitch><step>F</step><octave>4</octave></pitch><duration>6</duration><type>eighth</type></note></measure><measure number="9"><note><pitch><step>F</step><octave>4</octave></pitch><duration>12</duration><type>quarter</type></note><note><rest /><duration>12</duration><type>quarter</type></note><note><rest /><duration>12</duration><type>quarter</type></note><note><rest /><duration>12</duration><type>quarter</type></note></measure><measure number="10"><note><rest /><duration>12</duration><type>quarter</type></note><note><rest /><duration>12</duration><type>quarter</type></note><note><rest /><duration>4</duration><type>eighth</type><time-modification><actual-notes>3</actual-notes><normal-notes>2</normal-notes></time-modification><notations><tuplet type="start" /></notations></note><note><pitch><step>G</step><octave>4</octave></pitch><duration>4</duration><type>eighth</type><time-modification><actual-notes>3</actual-notes><normal-notes>2</normal-notes></time-modification></note><note><pitch><step>G</step><octave>4</octave></pitch><duration>4</duration><type>eighth</type><time-modification><actual-notes>3</actual-notes><normal-notes>2</normal-notes></time-modification><notations><tuplet type="stop" /></notations></note><note><pitch><step>G</step><octave>4</octave></pitch><duration>4</duration><type>eighth</type><time-modification><actual-notes>3</actual-notes><normal-notes>2</normal-notes></time-modification><notations><tuplet type="start" /></notations></note><note><pitch><step>G</step><octave>4</octave></pitch><duration>4</duration><type>eighth</type><time-modification><actual-notes>3</actual-notes><normal-notes>2</normal-notes></time-modification></note><note><pitch><step>G</step><octave>4</octave></pitch><duration>4</duration><type>eighth</type><time-modification><actual-notes>3</actual-notes><normal-notes>2</normal-notes></time-modification><notations><tuplet type="stop" /></notations></note></measure><measure number="11"><note><pitch><step>G</step><octave>4</octave></pitch><duration>12</duration><type>quarter</type></note><note><rest /><duration>12</duration><type>quarter</type></note><note><rest /><duration>4</duration><type>eighth</type><time-modification><actual-notes>3</actual-notes><normal-notes>2</normal-notes></time-modification><notations><tuplet type="start" /></notations></note><note><pitch><step>G</step><octave>4</octave></pitch><duration>4</duration><type>eighth</type><time-modification><actual-notes>3</actual-notes><normal-notes>2</normal-notes></time-modification></note><note><pitch><step>G</step><octave>4</octave></pitch><duration>4</duration><type>eighth</type><time-modification><actual-notes>3</actual-notes><normal-notes>2</normal-notes></time-modification><notations><tuplet type="stop" /></notations></note><note><pitch><step>G</step><octave>4</octave></pitch><duration>4</duration><type>eighth</type><time-modification><actual-notes>3</actual-notes><normal-notes>2</normal-notes></time-modification><notations><tuplet type="start" /></notations></note><note><pitch><step>G</step><octave>4</octave></pitch><duration>4</duration><type>eighth</type><time-modification><actual-notes>3</actual-notes><normal-notes>2</normal-notes></time-modification></note><note><pitch><step>G</step><octave>4</octave></pitch><duration>4</duration><type>eighth</type><time-modification><actual-notes>3</actual-notes><normal-notes>2</normal-notes></time-modification><notations><tuplet type="stop" /></notations></note></measure><measure number="12"><note><pitch><step>G</step><octave>4</octave></pitch><duration>12</duration><type>quarter</type></note><note><rest /><duration>12</duration><type>quarter</type></note><note><rest /><duration>4</duration><type>eighth</type><time-modification><actual-notes>3</actual-notes><normal-notes>2</normal-notes></time-modification><notations><tuplet type="start" /></notations></note><note><rest /><duration>4</duration><type>eighth</type><time-modification><actual-notes>3</actual-notes><normal-notes>2</normal-notes></time-modification></note><note><pitch><step>F</step><octave>4</octave></pitch><duration>4</duration><type>eighth</type><time-modification><actual-notes>3</actual-notes><normal-notes>2</normal-notes></time-modification><notations><tuplet type="stop" /></notations></note><note><pitch><step>F</step><octave>4</octave></pitch><duration>4</duration><type>eighth</type><time-modification><actual-notes>3</actual-notes><normal-notes>2</normal-notes></time-modification><notations><tuplet type="start" /></notations></note><note><rest /><duration>4</duration><type>eighth</type><time-modification><actual-notes>3</actual-notes><normal-notes>2</normal-notes></time-modification></note><note><pitch><step>F</step><octave>4</octave></pitch><duration>4</duration><type>eighth</type><time-modification><actual-notes>3</actual-notes><normal-notes>2</normal-notes></time-modification><notations><tuplet type="stop" /></notations></note></measure><measure number="13"><note><pitch><step>F</step><octave>4</octave></pitch><duration>12</duration><type>quarter</type></note><note><rest /><duration>12</duration><type>quarter</type></note><note><rest /><duration>4</duration><type>eighth</type><time-modification><actual-notes>3</actual-notes><normal-notes>2</normal-notes></time-modification><notations><tuplet type="start" /></notations></note><note><pitch><step>D</step><octave>4</octave></pitch><duration>4</duration><type>eighth</type><time-modification><actual-notes>3</actual-notes><normal-notes>2</normal-notes></time-modification></note><note><pitch><step>D</step><octave>4</octave></pitch><duration>4</duration><type>eighth</type><time-modification><actual-notes>3</actual-notes><normal-notes>2</normal-notes></time-modification><notations><tuplet type="stop" /></notations></note><note><pitch><step>D</step><octave>4</octave></pitch><duration>4</duration><type>eighth</type><time-modification><actual-notes>3</actual-notes><normal-notes>2</normal-notes></time-modification><notations><tuplet type="start" /></notations></note><note><pitch><step>D</step><octave>4</octave></pitch><duration>4</duration><type>eighth</type><time-modification><actual-notes>3</actual-notes><normal-notes>2</normal-notes></time-modification></note><note><pitch><step>D</step><octave>4</octave></pitch><duration>4</duration><type>eighth</type><time-modification><actual-notes>3</actual-notes><normal-notes>2</normal-notes></time-modification><notations><tuplet type="stop" /></notations></note></measure><measure number="14"><note><pitch><step>D</step><octave>4</octave></pitch><duration>12</duration><type>quarter</type></note><note><rest /><duration>12</duration><type>quarter</type></note><note><rest /><duration>4</duration><type>eighth</type><time-modification><actual-notes>3</actual-notes><normal-notes>2</normal-notes></time-modification><notations><tuplet type="start" /></notations></note><note><pitch><step>G</step><octave>4</octave></pitch><duration>4</duration><type>eighth</type><time-modification><actual-notes>3</actual-notes><normal-notes>2</normal-notes></time-modification></note><note><pitch><step>G</step><octave>4</octave></pitch><duration>4</duration><type>eighth</type><time-modification><actual-notes>3</actual-notes><normal-notes>2</normal-notes></time-modification><notations><tuplet type="stop" /></notations></note><note><pitch><step>G</step><octave>4</octave></pitch><duration>4</duration><type>eighth</type><time-modification><actual-notes>3</actual-notes><normal-notes>2</normal-notes></time-modification><notations><tuplet type="start" /></notations></note><note><pitch><step>G</step><octave>4</octave></pitch><duration>4</duration><type>eighth</type><time-modification><actual-notes>3</actual-notes><normal-notes>2</normal-notes></time-modification></note><note><pitch><step>G</step><octave>4</octave></pitch><duration>4</duration><type>eighth</type><time-modification><actual-notes>3</actual-notes><normal-notes>2</normal-notes></time-modification><notations><tuplet type="stop" /></notations></note></measure><measure number="15"><note><pitch><step>G</step><octave>4</octave></pitch><duration>12</duration><type>quarter</type></note><note><rest /><duration>12</duration><type>quarter</type></note><note><rest /><duration>4</duration><type>eighth</type><time-modification><actual-notes>3</actual-notes><normal-notes>2</normal-notes></time-modification><notations><tuplet type="start" /></notations></note><note><pitch><step>G</step><octave>4</octave></pitch><duration>4</duration><type>eighth</type><time-modification><actual-notes>3</actual-notes><normal-notes>2</normal-notes></time-modification></note><note><pitch><step>G</step><octave>4</octave></pitch><duration>4</duration><type>eighth</type><time-modification><actual-notes>3</actual-notes><normal-notes>2</normal-notes></time-modification><notations><tuplet type="stop" /></notations></note><note><pitch><step>G</step><octave>4</octave></pitch><duration>4</duration><type>eighth</type><time-modification><actual-notes>3</actual-notes><normal-notes>2</normal-notes></time-modification><notations><tuplet type="start" /></notations></note><note><pitch><step>G</step><octave>4</octave></pitch><duration>4</duration><type>eighth</type><time-modification><actual-notes>3</actual-notes><normal-notes>2</normal-notes></time-modification></note><note><pitch><step>G</step><octave>4</octave></pitch><duration>4</duration><type>eighth</type><time-modification><actual-notes>3</actual-notes><normal-notes>2</normal-notes></time-modification><notations><tuplet type="stop" /></notations></note></measure><measure number="16"><note><pitch><step>G</step><octave>4</octave></pitch><duration>12</duration><type>quarter</type></note><note><rest /><duration>12</duration><type>quarter</type></note><note><rest /><duration>4</duration><type>eighth</type><time-modification><actual-notes>3</actual-notes><normal-notes>2</normal-notes></time-modification><notations><tuplet type="start" /></notations></note><note><rest /><duration>4</duration><type>eighth</type><time-modification><actual-notes>3</actual-notes><normal-notes>2</normal-notes></time-modification></note><note><pitch><step>F</step><octave>4</octave></pitch><duration>4</duration><type>eighth</type><time-modification><actual-notes>3</actual-notes><normal-notes>2</normal-notes></time-modification><notations><tuplet type="stop" /></notations></note><note><pitch><step>F</step><octave>4</octave></pitch><duration>4</duration><type>eighth</type><time-modification><actual-notes>3</actual-notes><normal-notes>2</normal-notes></time-modification><notations><tuplet type="start" /></notations></note><note><rest /><duration>4</duration><type>eighth</type><time-modification><actual-notes>3</actual-notes><normal-notes>2</normal-notes></time-modification></note><note><pitch><step>F</step><octave>4</octave></pitch><duration>4</duration><type>eighth</type><time-modification><actual-notes>3</actual-notes><normal-notes>2</normal-notes></time-modification><notations><tuplet type="stop" /></notations></note></measure><measure number="17"><note><pitch><step>F</step><octave>4</octave></pitch><duration>12</duration><type>quarter</type></note><note><rest /><duration>12</duration><type>quarter</type></note><note><rest /><duration>12</duration><type>quarter</type></note><note><rest /><duration>12</duration><type>quarter</type></note></measure><measure number="18"><note><rest /><duration>12</duration><type>quarter</type></note><note><pitch><step>G</step><alter>1</alter><octave>4</octave></pitch><duration>6</duration><type>eighth</type></note><note><pitch><step>G</step><alter>1</alter><octave>4</octave></pitch><duration>6</duration><type>eighth</type></note><note><pitch><step>G</step><alter>1</alter><octave>4</octave></pitch><duration>6</duration><type>eighth</type></note><note><pitch><step>C</step><octave>4</octave></pitch><duration>6</duration><type>eighth</type></note><note><pitch><step>D</step><alter>1</alter><octave>4</octave></pitch><duration>6</duration><type>eighth</type></note><note><pitch><step>F</step><octave>4</octave></pitch><duration>6</duration><type>eighth</type></note></measure></part></score-partwise>